<svg xmlns="http://www.w3.org/2000/svg" viewBox="0 0 894 176">
    <g fill="#FFFFFF" fill-rule="evenodd">
        <path d="M220.85 139.955v-.896c0-7.44-2.014-11.582-8.672-11.582-5.315 0-7.945 4.533-7.945 11.638 0 7.162 2.63 11.303 8 11.303 6.324 0 8.618-3.469 8.618-10.463m-21.71-.95c0-10.297 4.924-15.612 12.365-15.612 4.645 0 7.443 1.958 9.288 4.42h.336c-.111-.952-.336-3.3-.336-4.42V113.32l4.925-1.902v42.525h-3.972l-.728-4.028h-.225c-1.79 2.573-4.643 4.588-9.343 4.588-7.443 0-12.31-5.204-12.31-15.499M238.194 135.983h15.275c-.056-5.092-2.294-8.562-7.274-8.562-4.7 0-7.498 3.19-8.001 8.562m20.423.95v2.966H238.08c.168 6.77 3.581 10.408 9.568 10.408 2.91 0 5.875-.56 8.226-1.455l1.398 3.693c-3.077 1.343-5.764 1.959-9.848 1.959-8.56 0-14.436-5.316-14.436-15.332 0-9.848 5.315-15.78 13.261-15.78 7.666 0 12.366 5.372 12.366 13.542M265.105 153.943V113.32l4.924-1.902v42.525zM301.472 154.503c-4.477 0-8.45-.672-10.968-1.902l1.568-4.141c1.734.783 5.37 1.679 9.624 1.679 5.93 0 9.008-2.462 9.008-6.435 0-3.917-2.182-5.596-9.4-8.225-6.827-2.462-10.296-5.652-10.296-11.863 0-6.322 5.204-10.183 12.758-10.183 4.364 0 8 .895 11.022 2.238l-1.622 4.309c-2.798-1.175-6.043-2.126-9.512-2.126-4.98 0-7.554 2.349-7.554 5.818 0 4.029 2.238 5.651 8.728 8.058 7.05 2.629 10.912 5.259 10.912 11.526 0 7.106-5.54 11.247-14.268 11.247M326.089 135.983h15.275c-.056-5.092-2.294-8.562-7.274-8.562-4.7 0-7.498 3.19-8.001 8.562m20.423.95v2.966h-20.535c.168 6.77 3.581 10.408 9.568 10.408 2.909 0 5.875-.56 8.226-1.455l1.398 3.693c-3.077 1.343-5.764 1.959-9.848 1.959-8.561 0-14.436-5.316-14.436-15.332 0-9.848 5.315-15.78 13.261-15.78 7.666 0 12.366 5.372 12.366 13.542M364.862 149.747l1.343 3.524c-1.064.672-3.19 1.232-5.484 1.232-4.7 0-8.785-2.015-8.785-9.288v-26.299l4.924-1.847v6.883h8.674v3.805h-8.674v17.345c0 3.637 1.96 5.373 4.7 5.373 1.12 0 2.63-.392 3.302-.728M382.486 149.747l1.344 3.524c-1.064.672-3.19 1.232-5.485 1.232-4.7 0-8.785-2.015-8.785-9.288v-26.299l4.925-1.847v6.883h8.673v3.805h-8.673v17.345c0 3.637 1.958 5.373 4.7 5.373 1.119 0 2.63-.392 3.3-.728M388.247 153.943h4.924v-29.991h-4.924v29.991zm5.372-38.104c0 2.126-1.343 3.133-2.854 3.133-1.622 0-2.909-1.007-2.909-3.133 0-2.183 1.287-3.134 2.909-3.134 1.511 0 2.854.951 2.854 3.134zM444.59 134.415v19.528h-4.867V134.64c0-4.7-1.958-7.107-6.1-7.107-5.818 0-8.112 3.47-8.112 9.848v16.562h-4.868V134.64c0-4.7-1.958-7.107-6.155-7.107-6.043 0-8.001 3.861-8.001 10.855v15.555h-4.924v-29.99h3.972l.728 4.084h.279c1.847-3.134 5.26-4.644 8.84-4.644 4.59 0 7.723 1.623 9.178 5.036h.28c2.014-3.413 5.707-5.036 9.624-5.036 6.77 0 10.127 3.3 10.127 11.022M464.954 150.418c6.043 0 8.785-4.42 8.785-11.526 0-7.107-2.742-11.359-8.84-11.359-6.099 0-8.729 4.252-8.729 11.359 0 7.106 2.685 11.526 8.784 11.526m-.11 4.085c-7.948 0-13.766-5.651-13.766-15.611 0-9.904 5.315-15.499 13.933-15.499 8.113 0 13.82 5.595 13.82 15.499 0 9.96-5.428 15.611-13.988 15.611M530.752 132.849v19.584c-4.309 1.398-8.449 2.07-14.045 2.07-12.42 0-19.136-7.89-19.136-20.535 0-12.477 7.61-20.535 20.703-20.535 4.476 0 8.505.895 11.918 2.35l-1.678 4.42c-2.854-1.231-6.715-2.35-10.52-2.35-9.568 0-15.163 6.155-15.163 16.115 0 9.569 4.31 16.17 15.052 16.17 3.524 0 5.82-.447 7.833-.95v-11.862h-8.784l1.678-4.477h12.142zM538.526 153.943h4.924v-29.991h-4.924v29.991zm5.373-38.104c0 2.126-1.344 3.133-2.855 3.133-1.622 0-2.909-1.007-2.909-3.133 0-2.183 1.287-3.134 2.909-3.134 1.511 0 2.855.951 2.855 3.134zM564.04 150.418c6.043 0 8.784-4.42 8.784-11.526 0-7.107-2.74-11.359-8.84-11.359-6.099 0-8.729 4.252-8.729 11.359 0 7.106 2.685 11.526 8.785 11.526m-.112 4.085c-7.946 0-13.765-5.651-13.765-15.611 0-9.904 5.315-15.499 13.933-15.499 8.113 0 13.82 5.595 13.82 15.499 0 9.96-5.427 15.611-13.988 15.611M602.086 123.729l-.615 4.532c-.95-.223-2.239-.391-3.246-.391-4.644 0-8.729 4.028-8.729 10.07v16.004h-4.924v-29.991h4.03l.558 5.483h.225c1.902-3.302 4.98-6.043 9.176-6.043 1.12 0 2.518.11 3.525.336M631.852 134.415v19.528h-4.868v-19.192c0-4.812-2.126-7.218-6.715-7.218-6.658 0-8.784 3.861-8.784 10.855v15.555h-4.924v-29.99h3.973l.726 4.084h.28c1.958-3.134 5.652-4.644 9.457-4.644 7.162 0 10.855 3.3 10.855 11.022M652.216 150.418c6.043 0 8.784-4.42 8.784-11.526 0-7.107-2.741-11.359-8.841-11.359-6.098 0-8.728 4.252-8.728 11.359 0 7.106 2.685 11.526 8.785 11.526m-.112 4.085c-7.946 0-13.765-5.651-13.765-15.611 0-9.904 5.315-15.499 13.933-15.499 8.113 0 13.82 5.595 13.82 15.499 0 9.96-5.427 15.611-13.988 15.611"/>
        <g>
            <path d="M204.232 73.968c0 9.904 4.588 16.115 13.765 16.115 3.468 0 7.721-.784 10.295-2.014l1.455 3.86c-4.477 2.07-7.443 2.574-12.478 2.574-12.254 0-18.353-8.001-18.353-20.591 0-12.086 6.827-20.48 19.192-20.48 4.085 0 7.666.673 10.687 2.183l-1.678 4.42c-2.462-1.12-5.484-2.181-9.065-2.181-8.56 0-13.82 6.098-13.82 16.114M239.425 63.897c0 1.454-.112 3.02-.28 4.196h.336c1.902-3.077 5.483-4.644 9.344-4.644 7.274 0 10.967 3.302 10.967 10.967v19.528h-4.868V74.75c0-4.811-2.126-7.217-6.715-7.217-6.714 0-8.784 3.917-8.784 10.91v15.5H234.5v-40.68l4.924-1.846v12.479zM267.958 93.943h4.924V63.952h-4.924v29.991zm5.372-38.104c0 2.126-1.344 3.133-2.854 3.133-1.622 0-2.909-1.007-2.909-3.133 0-2.183 1.287-3.134 2.909-3.134 1.51 0 2.854.951 2.854 3.134zM284.799 75.983h15.275c-.056-5.093-2.294-8.563-7.274-8.563-4.7 0-7.498 3.19-8.001 8.563m20.423.95v2.965h-20.535c.168 6.772 3.581 10.409 9.568 10.409 2.909 0 5.875-.56 8.226-1.456l1.398 3.694c-3.077 1.343-5.764 1.959-9.848 1.959-8.561 0-14.436-5.317-14.436-15.333 0-9.848 5.315-15.778 13.261-15.778 7.666 0 12.366 5.37 12.366 13.54M319.264 94.503c-4.196 0-7.106-.672-9.4-1.902l1.455-3.805c1.958.839 5.204 1.734 8.057 1.734 4.98 0 7.106-1.734 7.106-4.421 0-2.237-1.511-3.581-7.386-5.818-5.82-2.238-9.288-4.029-9.288-8.953 0-5.092 4.532-7.945 11.247-7.945 3.637 0 6.77.783 9.567 2.014l-1.51 3.973c-2.574-1.119-5.484-1.959-8.393-1.959-4.03 0-6.211 1.399-6.211 3.638 0 2.517 1.958 3.524 7.722 5.707 5.707 2.126 9.009 4.085 9.009 8.896 0 5.82-4.645 8.841-11.975 8.841M350.036 79.451c-7.498.28-9.904 2.406-9.904 6.211 0 3.357 2.238 4.868 5.484 4.868 5.035 0 8.84-2.742 8.84-8.56v-2.687l-4.42.168zm9.288-5.93v20.422h-3.58l-.952-4.253h-.224c-2.63 3.302-5.036 4.813-10.07 4.813-5.429 0-9.458-2.798-9.458-8.897 0-5.987 4.59-9.289 14.381-9.568l5.092-.168v-1.79c0-4.98-2.294-6.659-6.21-6.659-3.135 0-5.989 1.12-8.45 2.294l-1.51-3.693c2.63-1.399 6.321-2.574 10.238-2.574 7.274 0 10.743 3.078 10.743 10.072zM384.89 73.968c0 9.904 4.589 16.115 13.766 16.115 3.469 0 7.72-.784 10.296-2.014l1.454 3.86c-4.476 2.07-7.442 2.574-12.478 2.574-12.254 0-18.352-8.001-18.352-20.591 0-12.086 6.826-20.48 19.192-20.48 4.084 0 7.665.673 10.686 2.183l-1.677 4.42c-2.463-1.12-5.485-2.181-9.066-2.181-8.56 0-13.82 6.098-13.82 16.114M432.673 63.729l-.615 4.532c-.951-.223-2.239-.391-3.246-.391-4.644 0-8.729 4.028-8.729 10.07v16.004h-4.924V63.953h4.029l.559 5.483h.225c1.902-3.302 4.979-6.043 9.176-6.043 1.119 0 2.518.11 3.525.336M437.147 93.943h4.924V63.952h-4.924v29.991zm5.372-38.104c0 2.126-1.343 3.133-2.854 3.133-1.623 0-2.91-1.007-2.91-3.133 0-2.183 1.287-3.134 2.91-3.134 1.511 0 2.854.951 2.854 3.134zM458.017 94.503c-4.197 0-7.106-.672-9.4-1.902l1.454-3.805c1.959.839 5.204 1.734 8.057 1.734 4.98 0 7.107-1.734 7.107-4.421 0-2.237-1.511-3.581-7.386-5.818-5.82-2.238-9.29-4.029-9.29-8.953 0-5.092 4.533-7.945 11.248-7.945 3.637 0 6.77.783 9.568 2.014l-1.51 3.973c-2.575-1.119-5.484-1.959-8.394-1.959-4.028 0-6.211 1.399-6.211 3.638 0 2.517 1.959 3.524 7.722 5.707 5.708 2.126 9.009 4.085 9.009 8.896 0 5.82-4.645 8.841-11.974 8.841M487.837 89.747l1.344 3.524c-1.064.672-3.19 1.232-5.485 1.232-4.699 0-8.784-2.015-8.784-9.288V58.916l4.924-1.847v6.883h8.673v3.805h-8.673v17.345c0 3.637 1.958 5.373 4.7 5.373 1.119 0 2.63-.392 3.301-.728M493.599 93.943h4.924V63.952h-4.924v29.991zm5.372-38.104c0 2.126-1.344 3.133-2.855 3.133-1.622 0-2.909-1.007-2.909-3.133 0-2.183 1.287-3.134 2.909-3.134 1.511 0 2.855.951 2.855 3.134zM519.728 79.451c-7.498.28-9.904 2.406-9.904 6.211 0 3.357 2.238 4.868 5.484 4.868 5.035 0 8.84-2.742 8.84-8.56v-2.687l-4.42.168zm9.288-5.93v20.422h-3.581l-.951-4.253h-.224c-2.63 3.302-5.036 4.813-10.071 4.813-5.428 0-9.457-2.798-9.457-8.897 0-5.987 4.589-9.289 14.38-9.568l5.093-.168v-1.79c0-4.98-2.294-6.659-6.211-6.659-3.134 0-5.988 1.12-8.45 2.294l-1.51-3.693c2.63-1.399 6.322-2.574 10.239-2.574 7.274 0 10.743 3.078 10.743 10.072zM562.474 74.415v19.528h-4.868V74.751c0-4.812-2.126-7.218-6.715-7.218-6.658 0-8.784 3.861-8.784 10.855v15.555h-4.924v-29.99h3.973l.726 4.084h.28c1.958-3.134 5.652-4.644 9.457-4.644 7.162 0 10.855 3.3 10.855 11.022M583.453 79.451c-7.498.28-9.904 2.406-9.904 6.211 0 3.357 2.238 4.868 5.484 4.868 5.035 0 8.84-2.742 8.84-8.56v-2.687l-4.42.168zm9.288-5.93v20.422h-3.58l-.952-4.253h-.224c-2.63 3.302-5.036 4.813-10.07 4.813-5.429 0-9.458-2.798-9.458-8.897 0-5.987 4.59-9.289 14.381-9.568l5.092-.168v-1.79c0-4.98-2.294-6.659-6.21-6.659-3.135 0-5.989 1.12-8.45 2.294l-1.51-3.693c2.63-1.399 6.321-2.574 10.238-2.574 7.274 0 10.743 3.078 10.743 10.072zM629.274 65.016c-.336-.896-1.51-4.59-1.901-5.987-.56 2.294-1.288 4.7-1.736 5.987l-4.531 12.086h12.645l-4.477-12.086zm5.988 16.562h-15.835l-4.756 12.366h-5.091l15.61-40.12h4.533l15.555 40.12h-5.203l-4.813-12.366zM644.211 63.952h5.26l6.38 17.682c.894 2.462 2.07 6.098 2.405 7.945h.224c.391-1.847 1.678-5.54 2.517-7.945l6.38-17.682h5.26l-11.415 29.991h-5.652l-11.359-29.99z"/>
            <path d="M671.515 63.952h5.26l6.379 17.682c.894 2.462 2.07 6.098 2.405 7.945h.224c.392-1.847 1.678-5.54 2.518-7.945l6.379-17.682h5.26l-11.415 29.991h-5.652l-11.358-29.99zM707.099 75.983h15.275c-.055-5.093-2.294-8.563-7.273-8.563-4.7 0-7.498 3.19-8.002 8.563m20.424.95v2.965h-20.535c.168 6.772 3.58 10.409 9.567 10.409 2.91 0 5.876-.56 8.226-1.456l1.398 3.694c-3.077 1.343-5.763 1.959-9.848 1.959-8.56 0-14.435-5.317-14.435-15.333 0-9.848 5.315-15.778 13.26-15.778 7.667 0 12.367 5.37 12.367 13.54M759.302 74.415v19.528h-4.868V74.751c0-4.812-2.126-7.218-6.715-7.218-6.658 0-8.784 3.861-8.784 10.855v15.555h-4.924v-29.99h3.973l.726 4.084h.28c1.958-3.134 5.652-4.644 9.457-4.644 7.162 0 10.855 3.3 10.855 11.022M779.33 89.747l1.343 3.524c-1.064.672-3.19 1.232-5.484 1.232-4.7 0-8.785-2.015-8.785-9.288V58.916l4.924-1.847v6.883h8.674v3.805h-8.674v17.345c0 3.637 1.96 5.373 4.7 5.373 1.12 0 2.63-.392 3.302-.728M785.092 93.943h4.924V63.952h-4.924v29.991zm5.371-38.104c0 2.126-1.343 3.133-2.854 3.133-1.623 0-2.91-1.007-2.91-3.133 0-2.183 1.287-3.134 2.91-3.134 1.511 0 2.854.951 2.854 3.134zM805.961 94.503c-4.197 0-7.106-.672-9.4-1.902l1.454-3.805c1.96.839 5.204 1.734 8.057 1.734 4.981 0 7.107-1.734 7.107-4.421 0-2.237-1.51-3.581-7.386-5.818-5.819-2.238-9.289-4.029-9.289-8.953 0-5.092 4.532-7.945 11.247-7.945 3.637 0 6.771.783 9.568 2.014l-1.51 3.973c-2.575-1.119-5.484-1.959-8.394-1.959-4.028 0-6.21 1.399-6.21 3.638 0 2.517 1.958 3.524 7.721 5.707 5.708 2.126 9.01 4.085 9.01 8.896 0 5.82-4.646 8.841-11.975 8.841M835.781 89.747l1.344 3.524c-1.064.672-3.19 1.232-5.485 1.232-4.699 0-8.784-2.015-8.784-9.288V58.916l4.924-1.847v6.883h8.673v3.805h-8.673v17.345c0 3.637 1.958 5.373 4.7 5.373 1.12 0 2.63-.392 3.301-.728M854.357 79.451c-7.498.28-9.904 2.406-9.904 6.211 0 3.357 2.238 4.868 5.484 4.868 5.035 0 8.84-2.742 8.84-8.56v-2.687l-4.42.168zm9.288-5.93v20.422h-3.581l-.951-4.253h-.224c-2.63 3.302-5.036 4.813-10.071 4.813-5.428 0-9.457-2.798-9.457-8.897 0-5.987 4.589-9.289 14.38-9.568l5.093-.168v-1.79c0-4.98-2.294-6.659-6.211-6.659-3.134 0-5.988 1.12-8.45 2.294l-1.51-3.693c2.63-1.399 6.322-2.574 10.239-2.574 7.274 0 10.743 3.078 10.743 10.072zM871.867 53.488h1.12l1.286 3.47 1.286-3.47h1.12v4.421h-.784V54.496h-.055l-1.232 3.413h-.67l-1.232-3.413h-.056v3.413h-.783v-4.42zm-2.574.672h-1.287v-.672h3.413v.672h-1.343v3.75h-.783v-3.75z"/>
        </g>
        <path d="M160.313 134.672h1.12l1.286 3.47 1.287-3.47h1.12v4.42h-.784v-3.413h-.056l-1.23 3.414h-.673l-1.23-3.414h-.057V139.093h-.783v-4.421zm-2.574.672h-1.287v-.672h3.413v.672h-1.343v3.749h-.783v-3.75zm-63.75 9.954c0 .54.62.543.732 0 .823-3.998 2.076-6.662 4.033-9.25l-4.4.003a.364.364 0 0 0-.365.364v8.883zm32.32-55.485c-.18-.585-.687-.623-.682-.011.05 5.779-1.612 10.745-12.16 21.294l-8.344 8.336c-3.797 3.797-7.21 7.265-9.229 10.73h8.24l.974-.975 11.97-11.982c9.97-9.97 11.36-20.514 9.231-27.392zm-11.187 35.249l-9.999 10.007c-6.052 6.053-11.134 11.268-11.134 16.97l.006 1.589c0 .43.536.499.701.048 1.868-5.106 8.112-10.556 19.564-8.624 0 0 49.89 8.62 50.31 8.658.487.043.728-.437.414-.811-.189-.224-23.22-23.254-23.22-23.254l-26.642-4.583zM79.03 136.049a.364.364 0 0 1-.364-.364v-5.162c0-.201.163-.364.364-.364l8.732.002a.364.364 0 0 0 .364-.364c-.023-4.637-3.519-7.788-17.523-5.35l-30.24 5.198s-23.032 23.03-23.22 23.254c-.315.374-.074.854.413.81.42-.036 50.31-8.657 50.31-8.657 11.452-1.932 17.696 3.518 19.564 8.624.165.45.702.383.702-.048l.001-17.215a.364.364 0 0 0-.364-.364H79.03zM65.09 63.897c-9.969 9.969-11.359 20.514-9.23 27.392.18.585.686.623.681.01-.05-5.778 1.612-10.745 12.161-21.293l22.74-22.733c6.052-6.053 11.134-11.268 11.134-16.971v-8.895c0-.541-.62-.543-.732 0-1.496 7.259-4.4 10.123-10.387 16.11L65.09 63.898zm37.508-17.973v-8.956c0-.541-.62-.543-.732 0-1.496 7.26-4.392 10.169-10.38 16.157L67.603 76.988c-11.59 11.59-13.596 22.808-7.7 30.016.392.48.815.192.558-.388-3.897-8.818 5.45-18.167 9.898-22.617l21.104-21.105c6.053-6.052 11.135-11.267 11.135-16.97zm-34.34 46.044c-11.59 11.592-6.26 22.787.5 25.868.593.27.828-.211.375-.604-5.422-4.696-3.776-12.597 3.042-19.414L91.44 78.553c6.053-6.052 11.134-11.267 11.134-16.97v-8.895c0-.541-.62-.543-.732 0-1.495 7.259-4.393 10.11-10.38 16.099l-23.203 23.18zm25.71 28.813v8.955c0 .54.62.543.731 0 1.496-7.26 4.392-10.168 10.38-16.156l9.486-9.466c11.591-11.59 13.596-22.808 7.701-30.016-.393-.48-.816-.193-.559.387 3.897 8.818-5.449 18.168-9.898 22.618l-6.707 6.707c-6.053 6.053-11.135 11.268-11.135 16.97zm11.137-22.863c-5.988 5.988-8.886 8.84-10.38 16.099-.113.543-.733.54-.733 0v-8.895c0-5.703 5.081-10.918 11.134-16.971l4.867-4.867c6.818-6.818 8.464-14.718 3.042-19.415-.453-.392-.218-.874.376-.603 6.76 3.08 12.09 14.276.5 25.867l-8.806 8.785z"/>
    </g>
</svg>
